# xmcd CD database file
# Copyright (C) 1993-1998 Ti Kan
#
# Track frame offsets:
# 182
# 18320
# 34082
# 54720
# 67882
# 87120
# 106432
# 119445
# 138345
# 154395
# 169307
# 183007
# 199820
# 207345
# 228357
# 245520
# 260657
# 281220
# 297695
# 315845
#
# Disc length: 4373 seconds
# Revision: 0
# Processed by: cddbd v1.4b41PL1 Copyright (c) Steve Scherf et al.
# Submitted via: CDSpectrumPro v3.3.331
#
DISCID=29111314
DTITLE=JOHN DENVER - JOHN DENVER - Two different directions - CD2
DYEAR=1900
DGENRE=
TTITLE0=Windsong
TTITLE1=Rocky Mountain Suite (Cold Nights In Canada)
TTITLE2=Eclipse
TTITLE3=The Flower That Shattered The Stone
TTITLE4=Raven's Child
TTITLE5=To The Wild Country
TTITLE6=American Child
TTITLE7=Islands
TTITLE8=Higher Ground
TTITLE9=Home Ground Tomatoes
TTITLE10=Whispering Jesse
TTITLE11=Never A Doubt
TTITLE12=Deal With The Ladies
TTITLE13=Sing Australia
TTITLE14=Country Girl In Paris
TTITLE15=For You
TTITLE16=All This Joy
TTITLE17=Falling Leaves (The Refugees)
TTITLE18=Bread And Roses
TTITLE19=Alaska And Me
EXTD=ADD - submitted by: Michael "Mikey" Scheidl - Austria
EXTT0=
EXTT1=
EXTT2=
EXTT3=
EXTT4=
EXTT5=
EXTT6=
EXTT7=
EXTT8=
EXTT9=
EXTT10=
EXTT11=
EXTT12=
EXTT13=
EXTT14=
EXTT15=
EXTT16=
EXTT17=
EXTT18=
EXTT19=
PLAYORDER=
